<svg width="8415" height="304" viewBox="0 0 8415 304" fill="none" xmlns="http://www.w3.org/2000/svg">
<path d="M0 304H3802.45H8414.06V146.5C8414.06 146.5 8176.94 0.5 7946.2 0.5C7707.69 0.5 7576.93 103.714 7334.66 103C7111.48 102.342 6985.18 40.5 6761.81 40.5C6532.29 40.5 6369.1 173 6151.49 173C5900.59 173 5619.15 40.5 5385.53 40.5C5151.91 40.5 5102.35 130.267 4775.21 132C4489.15 133.516 4370.01 0.5 4143.75 0.5C3905.24 0.5 3774.48 103.714 3532.21 103C3309.04 102.342 3182.74 40.5 2959.36 40.5C2729.84 40.5 2566.65 173 2349.04 173C2098.14 173 1816.7 40.5 1583.08 40.5C1349.46 40.5 1299.9 130.267 972.763 132C686.698 133.516 569.246 55.5 342.989 55.5C106.146 55.5 0 103 0 103V304Z" fill="url(#paint0_linear_195_87)"/>
<defs>
<linearGradient id="paint0_linear_195_87" x1="4207.03" y1="0.5" x2="4207.03" y2="304" gradientUnits="userSpaceOnUse">
<stop stop-color="#B1886A"/>
<stop offset="1" stop-color="#493B31"/>
</linearGradient>
</defs>
</svg>
