<svg width="9205" height="291" viewBox="0 0 9205 291" fill="none" xmlns="http://www.w3.org/2000/svg">
<path d="M-0.00170898 291H4204.19H9204.19V161.5C9204.19 161.5 9117 1.18017e-05 8837.42 0C8557.84 -1.18017e-05 8392.11 124.739 8141.35 124C7890.6 123.261 7629.03 0 7275.96 0C6922.88 0 6863.93 91.5 6613.04 91.5C6362.14 91.5 6068.29 0 5780.06 0C5491.84 0 5302.33 161.5 5103.45 161.5C4904.58 161.5 4701.33 0 4507.5 0C4227.92 -1.18017e-05 4187.92 124.739 3937.16 124C3686.41 123.261 3424.84 0 3071.77 0C2718.69 0 2659.75 91.5 2408.85 91.5C2157.95 91.5 1864.1 0 1575.87 0C1287.65 0 1098.14 161.5 899.263 161.5C700.387 161.5 629.772 91.5 435.94 91.5C242.108 91.5 -0.00170898 173 -0.00170898 173V291Z" fill="url(#paint0_linear_195_89)"/>
<defs>
<linearGradient id="paint0_linear_195_89" x1="4602.09" y1="0" x2="4602.09" y2="291" gradientUnits="userSpaceOnUse">
<stop stop-color="#493B31"/>
<stop offset="1" stop-color="#191614"/>
</linearGradient>
</defs>
</svg>
