<svg width="128" height="128" viewBox="0 0 128 128" fill="none" xmlns="http://www.w3.org/2000/svg">
<rect x="94.5659" y="16.717" width="23.6415" height="23.6415" rx="11.8207" transform="rotate(-45 94.5659 16.717)" fill="white"/>
<rect x="94.5659" y="63.9996" width="23.6415" height="23.6415" rx="11.8207" transform="rotate(-45 94.5659 63.9996)" fill="white"/>
<rect x="94.5659" y="111.282" width="23.6415" height="23.6415" rx="11.8207" transform="rotate(-45 94.5659 111.282)" fill="white"/>
<rect x="47.2828" y="16.717" width="23.6415" height="23.6415" rx="11.8207" transform="rotate(-45 47.2828 16.717)" fill="white"/>
<rect x="47.2828" y="63.9996" width="23.6415" height="23.6415" rx="11.8207" transform="rotate(-45 47.2828 63.9996)" fill="white"/>
<rect x="47.2828" y="111.282" width="23.6415" height="23.6415" rx="11.8207" transform="rotate(-45 47.2828 111.282)" fill="white"/>
<rect y="16.717" width="23.6415" height="23.6415" rx="11.8207" transform="rotate(-45 0 16.717)" fill="white"/>
<rect y="63.9996" width="23.6415" height="23.6415" rx="11.8207" transform="rotate(-45 0 63.9996)" fill="white"/>
<rect y="111.282" width="23.6415" height="23.6415" rx="11.8207" transform="rotate(-45 0 111.282)" fill="white"/>
</svg>
