<svg width="56" height="56" viewBox="0 0 56 56" fill="none" xmlns="http://www.w3.org/2000/svg">
<path fill-rule="evenodd" clip-rule="evenodd" d="M30.023 1.34259C34.5747 3.39764 38.8736 8.27837 38.3678 14.9573C37.8621 21.6362 37.6092 26.2878 39.6322 27.8013C41.6552 29.3148 44.1839 27.1577 43.4253 24.9107C42.9195 22.6637 50 24.205 50 35.5077C50 46.8105 38.7471 56 27.6207 56C16.4943 56 6 46.8105 6 35.5077C6 31.5669 6.33068 27.4862 8.78161 22.0917C11.2325 16.6972 17.0542 11.0459 15.1034 17.9817C13.1527 24.9174 17.6322 28.1852 17.6322 24.9107C17.6322 22.378 19.7501 19.114 21.7628 16.0123C22.3522 15.1038 22.9327 14.2092 23.4483 13.3511C25.7241 9.56277 24.4597 2.84672 22.6897 1.34259C20.9196 -0.161534 25.4713 -0.712456 30.023 1.34259ZM23.75 37.75V33.25C23.75 33.25 23.75 31.75 22 31.75C20.25 31.75 20.25 33.25 20.25 33.25V37.75C20.25 37.75 20.25 39.25 22 39.25C23.75 39.25 23.75 37.75 23.75 37.75ZM35.75 37.75V33.25C35.75 33.25 35.75 31.75 34 31.75C32.25 31.75 32.25 33.25 32.25 33.25V37.75C32.25 37.75 32.25 39.25 34 39.25C35.75 39.25 35.75 37.75 35.75 37.75Z" fill="#FFF6EA"/>
</svg>
