<svg width="8366" height="280" viewBox="0 0 8366 280" fill="none" xmlns="http://www.w3.org/2000/svg">
<path d="M0.100342 279.5H4172.89H8365.86V35.5C8365.86 35.5 8157.78 0 7927.03 0C7688.53 0 7507.83 69.2143 7265.56 68.5C7042.38 67.842 6891.58 0 6668.21 0C6438.69 0 6254.6 88 6036.99 88C5786.09 88 5660.3 35 5426.67 35C5193.05 35 5121.87 66.7665 4794.74 68.5C4508.67 70.0158 4399.15 0 4172.89 0C3934.38 0 3753.69 69.2143 3511.41 68.5C3288.24 67.842 3137.44 0 2914.06 0C2684.55 0 2500.46 88 2282.85 88C2031.95 88 1906.15 35 1672.53 35C1438.91 35 1367.73 66.7665 1040.6 68.5C754.532 70.0158 645.006 1 418.749 1C181.906 1 0.100342 31 0.100342 31V279.5Z" fill="url(#paint0_linear_195_85)"/>
<defs>
<linearGradient id="paint0_linear_195_85" x1="4182.98" y1="0" x2="4182.98" y2="279.5" gradientUnits="userSpaceOnUse">
<stop stop-color="#FFF6EA"/>
<stop offset="1" stop-color="#B1886A"/>
</linearGradient>
</defs>
</svg>
