<svg width="800" height="800" viewBox="0 0 800 800" fill="none" xmlns="http://www.w3.org/2000/svg">
<path d="M672.986 75.0583H130.655C123.665 74.7309 116.678 75.7851 110.096 78.1612C103.514 80.5373 97.4647 84.1881 92.2949 88.9046C87.1255 93.6215 82.9367 99.3117 79.9691 105.649C77.0016 111.987 75.3128 118.847 75 125.838V669.39C75.4095 684.018 81.4048 697.94 91.7546 708.287C102.104 718.638 116.024 724.634 130.655 725.045H672.986C687.209 724.411 700.619 718.228 710.34 707.824C720.061 697.42 725.318 683.624 724.985 669.39V125.838C725.103 119.034 723.827 112.278 721.24 105.983C718.652 99.6895 714.805 93.9903 709.934 89.2353C705.067 84.4806 699.278 80.7709 692.925 78.333C686.571 75.8952 679.787 74.7808 672.986 75.0583ZM278.12 616.985H183.466V327.335H278.12V616.985ZM233.028 283.46C226.423 283.69 219.841 282.552 213.697 280.117C207.553 277.682 201.978 274.002 197.324 269.31C192.67 264.618 189.036 259.013 186.652 252.85C184.267 246.686 183.182 240.095 183.466 233.492C183.174 226.818 184.28 220.156 186.714 213.935C189.148 207.713 192.855 202.068 197.598 197.364C202.341 192.658 208.015 188.997 214.256 186.614C220.498 184.231 227.168 183.178 233.84 183.525C240.445 183.295 247.027 184.433 253.171 186.868C259.315 189.303 264.889 192.982 269.543 197.674C274.198 202.367 277.831 207.971 280.216 214.135C282.601 220.299 283.685 226.889 283.401 233.492C283.694 240.167 282.587 246.828 280.154 253.05C277.72 259.272 274.012 264.916 269.27 269.621C264.526 274.326 258.852 277.987 252.611 280.37C246.37 282.754 239.699 283.806 233.028 283.46ZM616.925 616.985H521.865V458.551C521.865 420.77 508.459 394.771 474.741 394.771C464.268 394.86 454.075 398.187 445.569 404.297C437.058 410.407 430.647 418.999 427.211 428.895C424.57 436.313 423.465 444.19 423.961 452.051V616.985H330.525V327.335H423.961V367.959C432.268 352.697 444.63 340.03 459.686 331.353C474.741 322.679 491.9 318.336 509.271 318.803C570.614 318.803 616.925 359.428 616.925 445.957V616.985Z" fill="#EBDBB2"/>
</svg>
