<svg width="800" height="800" viewBox="0 0 800 800" fill="none" xmlns="http://www.w3.org/2000/svg">
<path d="M75 255.333L271.803 386.536C318.134 417.422 341.301 432.866 366.337 438.868C388.466 444.169 411.534 444.169 433.663 438.868C458.699 432.866 481.868 417.422 528.198 386.536L725 255.333M190.556 652.556H609.444C649.892 652.556 670.118 652.556 685.567 644.683C699.155 637.761 710.205 626.711 717.128 613.122C725 597.674 725 577.448 725 537V262.556C725 222.107 725 201.883 717.128 186.434C710.205 172.844 699.155 161.796 685.567 154.872C670.118 147 649.892 147 609.444 147H190.556C150.107 147 129.883 147 114.434 154.872C100.844 161.796 89.7958 172.844 82.8719 186.434C75 201.883 75 222.107 75 262.556V537C75 577.448 75 597.674 82.8719 613.122C89.7958 626.711 100.844 637.761 114.434 644.683C129.883 652.556 150.107 652.556 190.556 652.556Z" stroke="#EBDBB2" stroke-width="66.6667" stroke-linecap="round" stroke-linejoin="round"/>
</svg>
