<svg width="768" height="796" viewBox="0 0 768 796" fill="none" xmlns="http://www.w3.org/2000/svg">
<path d="M448.876 776.868C428.728 802.234 387.877 788.336 387.391 755.946L380.292 282.212H698.905C756.614 282.212 788.799 348.851 752.915 394.037L448.876 776.868Z" fill="url(#paint0_linear_9_59)"/>
<path d="M448.876 776.868C428.728 802.234 387.877 788.336 387.391 755.946L380.292 282.212H698.905C756.614 282.212 788.799 348.851 752.915 394.037L448.876 776.868Z" fill="url(#paint1_linear_9_59)" fill-opacity="0.2"/>
<path d="M319.298 14.5888C339.445 -10.7803 380.297 3.12016 380.783 35.5101L383.894 509.244H69.269C11.558 509.244 -20.6285 442.605 15.2579 397.419L319.298 14.5888Z" fill="#689D6A"/>
<defs>
<linearGradient id="paint0_linear_9_59" x1="380.292" y1="387.25" x2="663.444" y2="506.031" gradientUnits="userSpaceOnUse">
<stop stop-color="#457247"/>
<stop offset="1" stop-color="#689D6A"/>
</linearGradient>
<linearGradient id="paint1_linear_9_59" x1="254.749" y1="215.399" x2="383.844" y2="458.468" gradientUnits="userSpaceOnUse">
<stop/>
<stop offset="1" stop-opacity="0"/>
</linearGradient>
</defs>
</svg>
