<svg width="845" height="841" viewBox="0 0 845 841" fill="none" xmlns="http://www.w3.org/2000/svg">
<path d="M190.028 419C190.028 373 199.028 333 217.028 299C235.028 264.333 260.361 237.667 293.028 219C326.361 199.667 364.695 190 408.028 190C448.695 190 483.361 198.667 512.028 216C540.695 233.333 562.694 257.667 578.028 289C594.028 319.667 602.028 356.333 602.028 399C602.028 405 601.695 411.333 601.028 418L190.028 419ZM190.028 419C190.106 466.742 199.44 508.479 218.028 543C237.361 577 264.361 603.333 299.028 622C333.694 640 374.361 649 421.028 649C601.028 649 751.028 550 751.028 418C751.028 219 632.028 40 408.028 40C201.727 40 37.5492 212.714 40.0277 419C42.7911 649 190.028 801 408.028 801C558.146 801 700.434 757.645 804.028 649" stroke="#EBDBB2" stroke-width="80" stroke-linecap="round" stroke-linejoin="round"/>
</svg>
